<svg width="446" height="119" viewBox="0 0 446 119" fill="none" xmlns="http://www.w3.org/2000/svg">
<path fill-rule="evenodd" clip-rule="evenodd" d="M0 0L14.5463 10.9273C29.0927 21.8547 58.1854 43.7093 87.2781 48.0803C116.371 52.4512 145.463 39.3384 174.556 39.3384C203.649 39.3384 232.742 52.4512 261.834 63.3785C290.927 74.3059 320.02 83.0477 349.112 78.6768C378.205 74.3059 429.117 118.015 446 118.015H436.39H421.844C407.298 118.015 378.205 118.015 349.112 118.015C320.02 118.015 290.927 118.015 261.834 118.015C232.742 118.015 203.649 118.015 174.556 118.015C145.463 118.015 116.371 118.015 87.2781 118.015C58.1854 118.015 29.0927 118.015 14.5463 118.015H0V0Z" fill="#37A6C3"/>
<path fill-rule="evenodd" clip-rule="evenodd" d="M0 35L11.5458 42.6852C23.0915 50.3704 46.183 65.7407 69.2745 68.8148C92.366 71.8889 115.458 62.6667 138.549 62.6667C161.641 62.6667 184.732 71.8889 207.824 79.5741C230.915 87.2593 254.007 93.4074 277.098 90.3333C300.19 87.2593 342 118 354 118H346.373H334.827C323.281 118 300.19 118 277.098 118C254.007 118 230.915 118 207.824 118C184.732 118 161.641 118 138.549 118C115.458 118 92.366 118 69.2745 118C46.183 118 23.0915 118 11.5458 118H0V35Z" fill="#3EBCDD"/>
<path fill-rule="evenodd" clip-rule="evenodd" d="M0 81L8.90393 84.4259C17.8079 87.8519 35.6157 94.7037 53.4236 96.0741C71.2314 97.4444 89.0393 93.3333 106.847 93.3333C124.655 93.3333 142.463 97.4444 160.271 100.87C178.079 104.296 195.886 107.037 213.694 105.667C231.502 104.296 264 118 273 118H267.118H258.214C249.31 118 231.502 118 213.694 118C195.886 118 178.079 118 160.271 118C142.463 118 124.655 118 106.847 118C89.0393 118 71.2314 118 53.4236 118C35.6157 118 17.8079 118 8.90393 118H0V81Z" fill="#43CCF0"/>
<path d="M28.9532 82.127C39.983 91.5249 56.5429 90.2021 65.9408 79.1723L45.9697 62.1559L28.9532 82.127Z" fill="#184447"/>
<path d="M27.6513 68.0585C38.6811 77.4565 55.241 76.1336 64.6389 65.1039L44.6678 48.0874L27.6513 68.0585Z" fill="#206266"/>
<path d="M26.3494 53.9901C37.3791 63.388 53.939 62.0651 63.337 51.0354L43.3658 34.0189L26.3494 53.9901Z" fill="#2B888E"/>
<path d="M163.43 66.7769C172.869 77.7714 189.434 79.0325 200.429 69.5934L183.338 49.686L163.43 66.7769Z" fill="#184447"/>
<path d="M164.326 52.6766C173.765 63.6712 190.329 64.9322 201.324 55.4932L184.233 35.5857L164.326 52.6766Z" fill="#206266"/>
<path d="M165.221 38.5765C174.66 49.5711 191.225 50.8321 202.219 41.393L185.128 21.4856L165.221 38.5765Z" fill="#2B888E"/>
</svg>
